<svg id="visual" viewBox="0 0 900 600" width="900" height="600" xmlns="http://www.w3.org/2000/svg" xmlns:xlink="http://www.w3.org/1999/xlink" version="1.1"><rect x="0" y="0" width="900" height="600" fill="#dce8f1"></rect><path d="M0 457L21.5 460.3C43 463.7 86 470.3 128.8 477.5C171.7 484.7 214.3 492.3 257.2 488.5C300 484.7 343 469.3 385.8 465.5C428.7 461.7 471.3 469.3 514.2 474.7C557 480 600 483 642.8 479.5C685.7 476 728.3 466 771.2 464.8C814 463.7 857 471.3 878.5 475.2L900 479L900 601L878.5 601C857 601 814 601 771.2 601C728.3 601 685.7 601 642.8 601C600 601 557 601 514.2 601C471.3 601 428.7 601 385.8 601C343 601 300 601 257.2 601C214.3 601 171.7 601 128.8 601C86 601 43 601 21.5 601L0 601Z" fill="#199249"></path><path d="M0 478L21.5 485.2C43 492.3 86 506.7 128.8 511.7C171.7 516.7 214.3 512.3 257.2 505C300 497.7 343 487.3 385.8 483.7C428.7 480 471.3 483 514.2 487.5C557 492 600 498 642.8 499.2C685.7 500.3 728.3 496.7 771.2 497.5C814 498.3 857 503.7 878.5 506.3L900 509L900 601L878.5 601C857 601 814 601 771.2 601C728.3 601 685.7 601 642.8 601C600 601 557 601 514.2 601C471.3 601 428.7 601 385.8 601C343 601 300 601 257.2 601C214.3 601 171.7 601 128.8 601C86 601 43 601 21.5 601L0 601Z" fill="#157738"></path><path d="M0 533L21.5 529.2C43 525.3 86 517.7 128.8 517C171.7 516.3 214.3 522.7 257.2 524.5C300 526.3 343 523.7 385.8 521.3C428.7 519 471.3 517 514.2 520.3C557 523.7 600 532.3 642.8 530.5C685.7 528.7 728.3 516.3 771.2 516C814 515.7 857 527.3 878.5 533.2L900 539L900 601L878.5 601C857 601 814 601 771.2 601C728.3 601 685.7 601 642.8 601C600 601 557 601 514.2 601C471.3 601 428.7 601 385.8 601C343 601 300 601 257.2 601C214.3 601 171.7 601 128.8 601C86 601 43 601 21.5 601L0 601Z" fill="#0f5e29"></path><path d="M0 550L21.5 550C43 550 86 550 128.8 546.8C171.7 543.7 214.3 537.3 257.2 539.7C300 542 343 553 385.8 553C428.7 553 471.3 542 514.2 538.7C557 535.3 600 539.7 642.8 544.7C685.7 549.7 728.3 555.3 771.2 558.2C814 561 857 561 878.5 561L900 561L900 601L878.5 601C857 601 814 601 771.2 601C728.3 601 685.7 601 642.8 601C600 601 557 601 514.2 601C471.3 601 428.7 601 385.8 601C343 601 300 601 257.2 601C214.3 601 171.7 601 128.8 601C86 601 43 601 21.5 601L0 601Z" fill="#08461b"></path><path d="M0 556L21.5 560.5C43 565 86 574 128.8 577.2C171.7 580.3 214.3 577.7 257.2 577.2C300 576.7 343 578.3 385.8 579.3C428.7 580.3 471.3 580.7 514.2 579C557 577.3 600 573.7 642.8 573.2C685.7 572.7 728.3 575.3 771.2 573.8C814 572.3 857 566.7 878.5 563.8L900 561L900 601L878.5 601C857 601 814 601 771.2 601C728.3 601 685.7 601 642.8 601C600 601 557 601 514.2 601C471.3 601 428.7 601 385.8 601C343 601 300 601 257.2 601C214.3 601 171.7 601 128.8 601C86 601 43 601 21.5 601L0 601Z" fill="#032f0d"></path></svg>