<?xml version="1.0" encoding="iso-8859-1"?>
<!-- Uploaded to: SVG Repo, www.svgrepo.com, Generator: SVG Repo Mixer Tools -->
<svg height="800px" width="800px" version="1.1" id="Layer_1" xmlns="http://www.w3.org/2000/svg" xmlns:xlink="http://www.w3.org/1999/xlink" 
	 viewBox="0 0 512 512" xml:space="preserve">
<path style="fill:#533F29;" d="M256.206,503.103c-8.907,0-16.128-7.221-16.128-16.128V299.039c0-8.907,7.221-16.128,16.128-16.128
	c8.907,0,16.128,7.221,16.128,16.128v187.937C272.334,495.882,265.113,503.103,256.206,503.103z"/>
<path style="fill:#A9825A;" d="M366.237,191.154c3.415-3.415,3.582-8.965,0.168-12.379l-29.139-29.139
	c-14.286-14.286-14.517-37.221-0.228-51.51c2.639-2.639,3.076-6.404,1.57-9.558l-77.002-77.419c-1.43-1.438-3.374-2.248-5.402-2.251
	c-2.029-0.002-3.974,0.802-5.408,2.235l-76.989,76.989c-1.506,3.154-1.069,6.919,1.57,9.558
	c14.288,14.288,14.058,37.223-0.228,51.51l-29.139,29.139c-3.414,3.414-3.248,8.964,0.168,12.38l47.228,47.229
	c7.552,7.552,11.758,17.837,11.758,28.52c0,10.68-4.262,20.943-11.816,28.499c-1.639,1.638-2.371,3.674-2.371,5.992
	c0,2.318,1.112,4.354,2.751,5.993l62.48,53.659v0.446l62.48-53.659c1.639-1.639,2.751-3.675,2.751-5.992
	c0-2.317-0.731-4.354-2.371-5.992c-7.554-7.555-11.816-17.818-11.816-28.499c0-10.683,4.205-20.967,11.758-28.519L366.237,191.154z"
	/>
<path style="fill:#7E6142;" d="M366.237,191.154c3.415-3.415,3.582-8.965,0.168-12.379l-29.139-29.139
	c-14.286-14.286-14.517-37.221-0.228-51.51c2.639-2.639,3.076-6.404,1.57-9.558l-77.002-77.419c-1.43-1.438-3.374-2.248-5.402-2.251
	c-0.217,0-0.433,0.013-0.647,0.031v351.108l0.652,0.56v0.447l62.48-53.659c1.639-1.639,2.751-3.675,2.751-5.992
	c0-2.318-0.731-4.354-2.371-5.992c-7.554-7.555-11.816-17.818-11.816-28.499c0-10.683,4.205-20.967,11.758-28.519L366.237,191.154z"
	/>
<path style="fill:#7D4800;" d="M194.399,187.765c-0.558-4.37-4.471-7.589-8.84-7.03l-37.292,4.766
	c-18.282,2.336-34.962-10.297-37.3-28.584c-0.432-3.377-2.905-5.795-6.021-6.468L6.101,162.812c-1.836,0.229-3.506,1.181-4.64,2.643
	c-1.134,1.462-1.639,3.316-1.405,5.151l12.592,98.526c1.436,2.847,4.397,4.633,7.774,4.201
	c18.286-2.337,34.708,10.629,37.046,28.912l4.766,37.291c0.558,4.369,4.657,7.346,9.028,6.788l60.44-7.724
	c9.665-1.236,19.434,1.469,27.143,7.432c7.707,5.96,12.735,14.764,13.972,24.431c0.267,2.098,1.329,3.761,3.002,5.055
	c1.673,1.294,3.762,1.627,5.86,1.359l73.594-15.143l0.322,0.249l-3.854-75.036c-0.268-2.098-1.116-4.036-2.789-5.33
	c-1.673-1.294-3.549-1.902-5.647-1.634c-9.668,1.236-19.453-1.417-27.16-7.377c-7.71-5.962-12.784-14.737-14.019-24.401
	L194.399,187.765z"/>
<path style="fill:#633900;" d="M194.399,187.765c-0.558-4.37-4.471-7.588-8.84-7.03l-37.292,4.766
	c-18.282,2.337-34.962-10.297-37.3-28.582c-0.432-3.377-2.905-5.795-6.021-6.468L6.101,162.812c-1.836,0.229-3.505,1.181-4.64,2.643
	c-0.122,0.157-0.231,0.32-0.339,0.485l253.38,195.952l0.768-0.158l0.322,0.249l-3.854-75.036c-0.268-2.098-1.116-4.036-2.789-5.33
	c-1.673-1.294-3.549-1.902-5.647-1.634c-9.668,1.236-19.453-1.417-27.16-7.377c-7.71-5.962-12.784-14.737-14.019-24.401
	L194.399,187.765z"/>
<path style="fill:#A9825A;" d="M194.399,187.765c-0.558-4.37-4.471-7.589-8.84-7.03l-37.292,4.766
	c-18.282,2.336-34.962-10.297-37.3-28.584c-0.432-3.377-2.905-5.795-6.021-6.468L6.101,162.812c-1.836,0.229-3.506,1.181-4.64,2.643
	c-1.134,1.462-1.639,3.316-1.405,5.151l12.592,98.526c1.436,2.847,4.397,4.633,7.774,4.201
	c18.286-2.337,34.708,10.629,37.046,28.912l4.766,37.291c0.558,4.369,4.657,7.346,9.028,6.788l60.44-7.724
	c9.665-1.236,19.434,1.469,27.143,7.432c7.707,5.96,12.735,14.764,13.972,24.431c0.267,2.098,1.329,3.761,3.002,5.055
	c1.673,1.294,3.762,1.627,5.86,1.359l73.594-15.143l0.322,0.249l-3.854-75.036c-0.268-2.098-1.116-4.036-2.789-5.33
	c-1.673-1.294-3.549-1.902-5.647-1.634c-9.668,1.236-19.453-1.417-27.16-7.377c-7.71-5.962-12.784-14.737-14.019-24.401
	L194.399,187.765z"/>
<path style="fill:#7E6142;" d="M194.399,187.765c-0.558-4.37-4.471-7.588-8.84-7.03l-37.292,4.766
	c-18.282,2.337-34.962-10.297-37.3-28.582c-0.432-3.377-2.905-5.795-6.021-6.468L6.101,162.812c-1.836,0.229-3.505,1.181-4.64,2.643
	c-0.122,0.157-0.231,0.32-0.339,0.485l253.38,195.952l0.768-0.158l0.322,0.249l-3.854-75.036c-0.268-2.098-1.116-4.036-2.789-5.33
	c-1.673-1.294-3.549-1.902-5.647-1.634c-9.668,1.236-19.453-1.417-27.16-7.377c-7.71-5.962-12.784-14.737-14.019-24.401
	L194.399,187.765z"/>
<path style="fill:#A9825A;" d="M438.718,350.223c4.365,0.602,8.492-2.336,9.093-6.7l5.128-37.244
	c2.514-18.258,19.062-31.065,37.324-28.551c3.373,0.464,6.352-1.293,7.815-4.125l13.855-98.648c0.257-1.833-0.225-3.691-1.341-5.168
	c-1.116-1.476-2.773-2.448-4.606-2.7l-98.4-13.549c-3.123,0.643-5.619,3.036-6.083,6.409c-2.515,18.263-19.316,30.733-37.576,28.219
	l-37.242-5.128c-4.364-0.601-8.307,2.579-8.908,6.943l-8.312,60.362c-1.33,9.652-6.488,18.377-14.256,24.264
	c-7.765,5.886-17.575,8.443-27.23,7.113c-2.095-0.289-3.978,0.301-5.662,1.578c-1.685,1.277-2.552,3.207-2.84,5.302l-4.582,74.995
	l-0.324,0.246l73.443,15.857c2.095,0.289,4.187-0.025,5.873-1.302c1.685-1.277,2.762-2.93,3.05-5.026
	c1.33-9.655,6.444-18.409,14.208-24.295c7.767-5.887,17.562-8.497,27.214-7.167L438.718,350.223z"/>
<path style="fill:#7E6142;" d="M438.718,350.223c4.365,0.602,8.492-2.336,9.093-6.7l5.128-37.244
	c2.514-18.258,19.062-31.065,37.324-28.551c3.373,0.464,6.352-1.293,7.815-4.125l13.855-98.648c0.257-1.833-0.225-3.691-1.341-5.168
	c-0.12-0.158-0.248-0.308-0.38-0.454l-255.27,193.482l-0.048,0.783l-0.324,0.246l73.443,15.857c2.095,0.289,4.187-0.025,5.872-1.302
	c1.685-1.277,2.762-2.93,3.05-5.026c1.33-9.655,6.444-18.409,14.208-24.295c7.767-5.887,17.562-8.497,27.214-7.167L438.718,350.223z
	"/>
</svg>